<?xml version="1.0" standalone="no"?>
<!DOCTYPE svg PUBLIC "-//W3C//DTD SVG 20010904//EN"
 "http://www.w3.org/TR/2001/REC-SVG-20010904/DTD/svg10.dtd">
<svg version="1.0" xmlns="http://www.w3.org/2000/svg"
 width="768.000000pt" height="198.000000pt" viewBox="0 0 768.000000 198.000000"
 preserveAspectRatio="xMidYMid meet">

<g transform="translate(0.000000,198.000000) scale(0.100000,-0.100000)"
fill="#000000" stroke="none">
<path d="M6320 1309 c-286 -23 -672 -93 -1025 -185 -289 -76 -427 -116 -890
-261 -1560 -487 -2102 -611 -2790 -638 -518 -21 -1117 97 -1538 303 l-77 38 0
-283 0 -283 3840 0 3840 0 0 604 0 604 -72 16 c-117 25 -292 54 -438 72 -159
19 -673 27 -850 13z"/>
</g>
</svg>
